<?xml version="1.0" standalone="no"?>
<!DOCTYPE svg PUBLIC "-//W3C//DTD SVG 20010904//EN"
 "http://www.w3.org/TR/2001/REC-SVG-20010904/DTD/svg10.dtd">
<svg version="1.0" xmlns="http://www.w3.org/2000/svg"
 width="220.878248pt" height="201.985604pt" viewBox="0 0 220.878248 201.985604"
 preserveAspectRatio="xMidYMid meet">
<metadata>
Created by Potrace Professional 1.1m
</metadata>
<g transform="translate(-0.000000,218.985604) rotate(-360.00) scale(0.095238,-0.095238)"
fill="#000000" stroke="none">
<path d="M1042 2277 c-57 -28 -112 -92 -128 -149 -11 -40 -18 -47 -62 -63 -66
-24 -142 -82 -177 -135 -26 -38 -30 -55 -33 -144 -4 -122 8 -168 62 -227 83
-89 213 -116 519 -107 161 5 199 9 252 29 138 51 185 118 192 269 4 84 2 103
-18 144 -30 62 -102 127 -184 165 -59 28 -67 35 -73 69 -9 46 -81 126 -137
152 -59 27 -156 26 -213 -3z"/>
<path d="M224 2047 c-48 -19 -60 -55 -53 -162 14 -214 78 -370 201 -496 l80
-81 0 -77 0 -76 -203 0 c-243 0 -249 -2 -249 -89 0 -39 5 -60 17 -70 13 -11
73 -16 239 -19 l221 -6 7 -36 c3 -21 9 -47 13 -59 6 -19 -4 -27 -83 -67 -181
-89 -293 -240 -327 -440 -24 -143 -3 -191 86 -190 42 0 50 3 67 31 13 21 22
61 25 114 10 144 89 258 221 320 93 43 93 43 126 -8 49 -77 112 -141 174 -177
33 -19 64 -45 70 -58 5 -12 26 -30 47 -39 20 -9 53 -25 74 -36 20 -10 47 -22
59 -26 l24 -7 3 392 c3 385 3 392 27 436 13 25 31 48 40 52 34 13 69 -11 89
-60 17 -43 19 -85 19 -434 l1 -386 24 6 c13 4 62 26 110 49 98 47 243 176 313
277 44 64 43 64 136 18 144 -72 226 -200 226 -355 0 -76 27 -109 88 -109 34 0
50 6 69 25 22 24 23 31 16 113 -8 107 -26 168 -70 250 -47 89 -165 198 -266
247 -88 43 -82 29 -62 131 l6 31 215 1 215 0 31 30 c38 38 39 73 3 116 l-27
32 -209 0 -209 0 0 73 0 74 77 76 c130 130 192 283 203 508 6 109 5 118 -16
139 -14 14 -36 23 -58 23 -80 0 -92 -21 -102 -168 -5 -89 -13 -128 -40 -198
-60 -153 -157 -235 -353 -300 -139 -46 -170 -50 -357 -56 -166 -5 -202 -2
-294 17 -164 34 -339 107 -406 167 -82 74 -144 231 -153 388 -5 104 -7 109
-36 134 -33 27 -52 31 -89 15z"/>
</g>
</svg>
